solid panel-a1-grout-thinset
  facet normal 0 0 -1
    outer loop
      vertex 0.900000000 0.699970991 2.000000000
      vertex 129.900000000 101.029146440 2.000000000
      vertex 129.900000000 0.004849684 2.000000000
    endloop
  endfacet
  facet normal 0 0 -1
    outer loop
      vertex 0.900000000 0.699970991 2.000000000
      vertex 129.900000000 0.004849684 2.000000000
      vertex 129.900000000 0.000000000 2.000000000
    endloop
  endfacet
  facet normal 0 0 -1
    outer loop
      vertex 0.900000000 0.699970991 2.000000000
      vertex 129.900000000 0.000000000 2.000000000
      vertex 0.900000000 0.000000000 2.000000000
    endloop
  endfacet
  facet normal 0 0 -1
    outer loop
      vertex 0.900000000 101.729117431 2.000000000
      vertex 129.900000000 101.729117431 2.000000000
      vertex 129.900000000 101.029146440 2.000000000
    endloop
  endfacet
  facet normal 0 0 -1
    outer loop
      vertex 0.900000000 101.729117431 2.000000000
      vertex 129.900000000 101.029146440 2.000000000
      vertex 0.900000000 0.699970991 2.000000000
    endloop
  endfacet
  facet normal 0 -1 0
    outer loop
      vertex 0.900000000 0.000000000 2.000000000
      vertex 129.900000000 0.000000000 2.000000000
      vertex 129.900000000 0.000000000 2.993071593
    endloop
  endfacet
  facet normal 0 -1 0
    outer loop
      vertex 0.900000000 0.000000000 2.000000000
      vertex 129.900000000 0.000000000 2.993071593
      vertex 129.900000000 0.000000000 2.993119266
    endloop
  endfacet
  facet normal 0 -1 0
    outer loop
      vertex 0.900000000 0.000000000 2.000000000
      vertex 129.900000000 0.000000000 2.993119266
      vertex 0.900000000 0.000000000 2.006880734
    endloop
  endfacet
  facet normal 0 -1 0
    outer loop
      vertex 0.900000000 0.000000000 2.006880734
      vertex 129.900000000 0.000000000 2.993119266
      vertex 129.900000000 0.000000000 3.000000000
    endloop
  endfacet
  facet normal 0 -1 0
    outer loop
      vertex 0.900000000 0.000000000 2.006880734
      vertex 129.900000000 0.000000000 3.000000000
      vertex 0.900000000 0.000000000 3.000000000
    endloop
  endfacet
  facet normal 0 1 0
    outer loop
      vertex 129.900000000 101.729117431 2.000000000
      vertex 0.900000000 101.729117431 2.000000000
      vertex 0.900000000 101.729117431 2.993119266
    endloop
  endfacet
  facet normal 0 1 -0
    outer loop
      vertex 129.900000000 101.729117431 2.000000000
      vertex 0.900000000 101.729117431 2.993119266
      vertex 129.900000000 101.729117431 2.006880734
    endloop
  endfacet
  facet normal 0 1 0
    outer loop
      vertex 129.900000000 101.729117431 2.006880734
      vertex 0.900000000 101.729117431 2.993119266
      vertex 0.900000000 101.729117431 3.000000000
    endloop
  endfacet
  facet normal 0 1 -0
    outer loop
      vertex 129.900000000 101.729117431 2.006880734
      vertex 0.900000000 101.729117431 3.000000000
      vertex 129.900000000 101.729117431 2.006928407
    endloop
  endfacet
  facet normal 0 1 -0
    outer loop
      vertex 129.900000000 101.729117431 2.006928407
      vertex 0.900000000 101.729117431 3.000000000
      vertex 129.900000000 101.729117431 3.000000000
    endloop
  endfacet
  facet normal 0 0 1
    outer loop
      vertex 0.900000000 0.000000000 3.000000000
      vertex 129.900000000 0.000000000 3.000000000
      vertex 129.900000000 101.024296756 3.000000000
    endloop
  endfacet
  facet normal 0 0 1
    outer loop
      vertex 0.900000000 0.000000000 3.000000000
      vertex 129.900000000 101.024296756 3.000000000
      vertex 129.900000000 101.029146440 3.000000000
    endloop
  endfacet
  facet normal 0 0 1
    outer loop
      vertex 0.900000000 0.000000000 3.000000000
      vertex 129.900000000 101.029146440 3.000000000
      vertex 0.900000000 0.699970991 3.000000000
    endloop
  endfacet
  facet normal 0 0 1
    outer loop
      vertex 0.900000000 0.699970991 3.000000000
      vertex 129.900000000 101.029146440 3.000000000
      vertex 129.900000000 101.729117431 3.000000000
    endloop
  endfacet
  facet normal 0 0 1
    outer loop
      vertex 0.900000000 0.699970991 3.000000000
      vertex 129.900000000 101.729117431 3.000000000
      vertex 0.900000000 101.729117431 3.000000000
    endloop
  endfacet
  facet normal -1 0 0
    outer loop
      vertex 0.900000000 50.864558716 2.500000000
      vertex 0.900000000 0.699970991 2.000000000
      vertex 0.900000000 0.000000000 2.000000000
    endloop
  endfacet
  facet normal -1 0 -0
    outer loop
      vertex 0.900000000 50.864558716 2.500000000
      vertex 0.900000000 101.729117431 2.000000000
      vertex 0.900000000 0.699970991 2.000000000
    endloop
  endfacet
  facet normal -1 0 0
    outer loop
      vertex 0.900000000 50.864558716 2.500000000
      vertex 0.900000000 101.729117431 2.993119266
      vertex 0.900000000 101.729117431 2.000000000
    endloop
  endfacet
  facet normal -1 0 0
    outer loop
      vertex 0.900000000 50.864558716 2.500000000
      vertex 0.900000000 101.729117431 3.000000000
      vertex 0.900000000 101.729117431 2.993119266
    endloop
  endfacet
  facet normal -1 0 0
    outer loop
      vertex 0.900000000 50.864558716 2.500000000
      vertex 0.900000000 0.699970991 3.000000000
      vertex 0.900000000 101.729117431 3.000000000
    endloop
  endfacet
  facet normal -1 0 0
    outer loop
      vertex 0.900000000 50.864558716 2.500000000
      vertex 0.900000000 0.000000000 3.000000000
      vertex 0.900000000 0.699970991 3.000000000
    endloop
  endfacet
  facet normal -1 -0 0
    outer loop
      vertex 0.900000000 50.864558716 2.500000000
      vertex 0.900000000 0.000000000 2.006880734
      vertex 0.900000000 0.000000000 3.000000000
    endloop
  endfacet
  facet normal -1 0 0
    outer loop
      vertex 0.900000000 50.864558716 2.500000000
      vertex 0.900000000 0.000000000 2.000000000
      vertex 0.900000000 0.000000000 2.006880734
    endloop
  endfacet
  facet normal 1 0 0
    outer loop
      vertex 129.900000000 50.864558716 2.500000000
      vertex 129.900000000 0.000000000 2.000000000
      vertex 129.900000000 0.004849684 2.000000000
    endloop
  endfacet
  facet normal 1 0 0
    outer loop
      vertex 129.900000000 50.864558716 2.500000000
      vertex 129.900000000 0.004849684 2.000000000
      vertex 129.900000000 101.029146440 2.000000000
    endloop
  endfacet
  facet normal 1 0 0
    outer loop
      vertex 129.900000000 50.864558716 2.500000000
      vertex 129.900000000 101.029146440 2.000000000
      vertex 129.900000000 101.729117431 2.000000000
    endloop
  endfacet
  facet normal 1 0 0
    outer loop
      vertex 129.900000000 50.864558716 2.500000000
      vertex 129.900000000 101.729117431 2.000000000
      vertex 129.900000000 101.729117431 2.006880734
    endloop
  endfacet
  facet normal 1 0 0
    outer loop
      vertex 129.900000000 50.864558716 2.500000000
      vertex 129.900000000 101.729117431 2.006880734
      vertex 129.900000000 101.729117431 2.006928407
    endloop
  endfacet
  facet normal 1 -0 0
    outer loop
      vertex 129.900000000 50.864558716 2.500000000
      vertex 129.900000000 101.729117431 2.006928407
      vertex 129.900000000 101.729117431 3.000000000
    endloop
  endfacet
  facet normal 1 0 0
    outer loop
      vertex 129.900000000 50.864558716 2.500000000
      vertex 129.900000000 101.729117431 3.000000000
      vertex 129.900000000 101.029146440 3.000000000
    endloop
  endfacet
  facet normal 1 0 0
    outer loop
      vertex 129.900000000 50.864558716 2.500000000
      vertex 129.900000000 101.029146440 3.000000000
      vertex 129.900000000 101.024296756 3.000000000
    endloop
  endfacet
  facet normal 1 0 -0
    outer loop
      vertex 129.900000000 50.864558716 2.500000000
      vertex 129.900000000 101.024296756 3.000000000
      vertex 129.900000000 0.000000000 3.000000000
    endloop
  endfacet
  facet normal 1 0 0
    outer loop
      vertex 129.900000000 50.864558716 2.500000000
      vertex 129.900000000 0.000000000 3.000000000
      vertex 129.900000000 0.000000000 2.993119266
    endloop
  endfacet
  facet normal 1 0 0
    outer loop
      vertex 129.900000000 50.864558716 2.500000000
      vertex 129.900000000 0.000000000 2.993119266
      vertex 129.900000000 0.000000000 2.993071593
    endloop
  endfacet
  facet normal 1 0 0
    outer loop
      vertex 129.900000000 50.864558716 2.500000000
      vertex 129.900000000 0.000000000 2.993071593
      vertex 129.900000000 0.000000000 2.000000000
    endloop
  endfacet
endsolid panel-a1-grout-thinset
