solid panel-a1-base
  facet normal 0 0 -1
    outer loop
      vertex 0.900000000 0.699970991 0.000000000
      vertex 129.900000000 101.029146440 0.000000000
      vertex 129.900000000 0.004849684 0.000000000
    endloop
  endfacet
  facet normal 0 0 -1
    outer loop
      vertex 0.900000000 0.699970991 0.000000000
      vertex 129.900000000 0.004849684 0.000000000
      vertex 129.900000000 0.000000000 0.000000000
    endloop
  endfacet
  facet normal 0 0 -1
    outer loop
      vertex 0.900000000 0.699970991 0.000000000
      vertex 129.900000000 0.000000000 0.000000000
      vertex 0.900000000 0.000000000 0.000000000
    endloop
  endfacet
  facet normal 0 0 -1
    outer loop
      vertex 0.900000000 101.729117431 0.000000000
      vertex 129.900000000 101.729117431 0.000000000
      vertex 129.900000000 101.029146440 0.000000000
    endloop
  endfacet
  facet normal 0 0 -1
    outer loop
      vertex 0.900000000 101.729117431 0.000000000
      vertex 129.900000000 101.029146440 0.000000000
      vertex 0.900000000 0.699970991 0.000000000
    endloop
  endfacet
  facet normal 0 -1 0
    outer loop
      vertex 0.900000000 0.000000000 0.000000000
      vertex 129.900000000 0.000000000 0.000000000
      vertex 129.900000000 0.000000000 1.986143187
    endloop
  endfacet
  facet normal 0 -1 0
    outer loop
      vertex 0.900000000 0.000000000 0.000000000
      vertex 129.900000000 0.000000000 1.986143187
      vertex 129.900000000 0.000000000 1.986238532
    endloop
  endfacet
  facet normal 0 -1 0
    outer loop
      vertex 0.900000000 0.000000000 0.000000000
      vertex 129.900000000 0.000000000 1.986238532
      vertex 0.900000000 0.000000000 0.013761468
    endloop
  endfacet
  facet normal 0 -1 0
    outer loop
      vertex 0.900000000 0.000000000 0.013761468
      vertex 129.900000000 0.000000000 1.986238532
      vertex 129.900000000 0.000000000 2.000000000
    endloop
  endfacet
  facet normal 0 -1 0
    outer loop
      vertex 0.900000000 0.000000000 0.013761468
      vertex 129.900000000 0.000000000 2.000000000
      vertex 0.900000000 0.000000000 2.000000000
    endloop
  endfacet
  facet normal 0 1 0
    outer loop
      vertex 129.900000000 101.729117431 0.000000000
      vertex 0.900000000 101.729117431 0.000000000
      vertex 0.900000000 101.729117431 1.986238532
    endloop
  endfacet
  facet normal 0 1 -0
    outer loop
      vertex 129.900000000 101.729117431 0.000000000
      vertex 0.900000000 101.729117431 1.986238532
      vertex 129.900000000 101.729117431 0.013761468
    endloop
  endfacet
  facet normal 0 1 0
    outer loop
      vertex 129.900000000 101.729117431 0.013761468
      vertex 0.900000000 101.729117431 1.986238532
      vertex 0.900000000 101.729117431 2.000000000
    endloop
  endfacet
  facet normal 0 1 -0
    outer loop
      vertex 129.900000000 101.729117431 0.013761468
      vertex 0.900000000 101.729117431 2.000000000
      vertex 129.900000000 101.729117431 0.013856813
    endloop
  endfacet
  facet normal 0 1 -0
    outer loop
      vertex 129.900000000 101.729117431 0.013856813
      vertex 0.900000000 101.729117431 2.000000000
      vertex 129.900000000 101.729117431 2.000000000
    endloop
  endfacet
  facet normal 0 0 1
    outer loop
      vertex 0.900000000 0.000000000 2.000000000
      vertex 129.900000000 0.000000000 2.000000000
      vertex 129.900000000 101.024296756 2.000000000
    endloop
  endfacet
  facet normal 0 0 1
    outer loop
      vertex 0.900000000 0.000000000 2.000000000
      vertex 129.900000000 101.024296756 2.000000000
      vertex 129.900000000 101.029146440 2.000000000
    endloop
  endfacet
  facet normal 0 0 1
    outer loop
      vertex 0.900000000 0.000000000 2.000000000
      vertex 129.900000000 101.029146440 2.000000000
      vertex 0.900000000 0.699970991 2.000000000
    endloop
  endfacet
  facet normal 0 0 1
    outer loop
      vertex 0.900000000 0.699970991 2.000000000
      vertex 129.900000000 101.029146440 2.000000000
      vertex 129.900000000 101.729117431 2.000000000
    endloop
  endfacet
  facet normal 0 0 1
    outer loop
      vertex 0.900000000 0.699970991 2.000000000
      vertex 129.900000000 101.729117431 2.000000000
      vertex 0.900000000 101.729117431 2.000000000
    endloop
  endfacet
  facet normal -1 0 0
    outer loop
      vertex 0.900000000 50.864558716 1.000000000
      vertex 0.900000000 0.699970991 0.000000000
      vertex 0.900000000 0.000000000 0.000000000
    endloop
  endfacet
  facet normal -1 0 -0
    outer loop
      vertex 0.900000000 50.864558716 1.000000000
      vertex 0.900000000 101.729117431 0.000000000
      vertex 0.900000000 0.699970991 0.000000000
    endloop
  endfacet
  facet normal -1 0 0
    outer loop
      vertex 0.900000000 50.864558716 1.000000000
      vertex 0.900000000 101.729117431 1.986238532
      vertex 0.900000000 101.729117431 0.000000000
    endloop
  endfacet
  facet normal -1 0 0
    outer loop
      vertex 0.900000000 50.864558716 1.000000000
      vertex 0.900000000 101.729117431 2.000000000
      vertex 0.900000000 101.729117431 1.986238532
    endloop
  endfacet
  facet normal -1 0 0
    outer loop
      vertex 0.900000000 50.864558716 1.000000000
      vertex 0.900000000 0.699970991 2.000000000
      vertex 0.900000000 101.729117431 2.000000000
    endloop
  endfacet
  facet normal -1 0 0
    outer loop
      vertex 0.900000000 50.864558716 1.000000000
      vertex 0.900000000 0.000000000 2.000000000
      vertex 0.900000000 0.699970991 2.000000000
    endloop
  endfacet
  facet normal -1 -0 0
    outer loop
      vertex 0.900000000 50.864558716 1.000000000
      vertex 0.900000000 0.000000000 0.013761468
      vertex 0.900000000 0.000000000 2.000000000
    endloop
  endfacet
  facet normal -1 0 0
    outer loop
      vertex 0.900000000 50.864558716 1.000000000
      vertex 0.900000000 0.000000000 0.000000000
      vertex 0.900000000 0.000000000 0.013761468
    endloop
  endfacet
  facet normal 1 0 0
    outer loop
      vertex 129.900000000 50.864558716 1.000000000
      vertex 129.900000000 0.000000000 0.000000000
      vertex 129.900000000 0.004849684 0.000000000
    endloop
  endfacet
  facet normal 1 0 0
    outer loop
      vertex 129.900000000 50.864558716 1.000000000
      vertex 129.900000000 0.004849684 0.000000000
      vertex 129.900000000 101.029146440 0.000000000
    endloop
  endfacet
  facet normal 1 0 0
    outer loop
      vertex 129.900000000 50.864558716 1.000000000
      vertex 129.900000000 101.029146440 0.000000000
      vertex 129.900000000 101.729117431 0.000000000
    endloop
  endfacet
  facet normal 1 0 0
    outer loop
      vertex 129.900000000 50.864558716 1.000000000
      vertex 129.900000000 101.729117431 0.000000000
      vertex 129.900000000 101.729117431 0.013761468
    endloop
  endfacet
  facet normal 1 0 0
    outer loop
      vertex 129.900000000 50.864558716 1.000000000
      vertex 129.900000000 101.729117431 0.013761468
      vertex 129.900000000 101.729117431 0.013856813
    endloop
  endfacet
  facet normal 1 -0 0
    outer loop
      vertex 129.900000000 50.864558716 1.000000000
      vertex 129.900000000 101.729117431 0.013856813
      vertex 129.900000000 101.729117431 2.000000000
    endloop
  endfacet
  facet normal 1 0 0
    outer loop
      vertex 129.900000000 50.864558716 1.000000000
      vertex 129.900000000 101.729117431 2.000000000
      vertex 129.900000000 101.029146440 2.000000000
    endloop
  endfacet
  facet normal 1 0 0
    outer loop
      vertex 129.900000000 50.864558716 1.000000000
      vertex 129.900000000 101.029146440 2.000000000
      vertex 129.900000000 101.024296756 2.000000000
    endloop
  endfacet
  facet normal 1 0 -0
    outer loop
      vertex 129.900000000 50.864558716 1.000000000
      vertex 129.900000000 101.024296756 2.000000000
      vertex 129.900000000 0.000000000 2.000000000
    endloop
  endfacet
  facet normal 1 0 0
    outer loop
      vertex 129.900000000 50.864558716 1.000000000
      vertex 129.900000000 0.000000000 2.000000000
      vertex 129.900000000 0.000000000 1.986238532
    endloop
  endfacet
  facet normal 1 0 0
    outer loop
      vertex 129.900000000 50.864558716 1.000000000
      vertex 129.900000000 0.000000000 1.986238532
      vertex 129.900000000 0.000000000 1.986143187
    endloop
  endfacet
  facet normal 1 0 0
    outer loop
      vertex 129.900000000 50.864558716 1.000000000
      vertex 129.900000000 0.000000000 1.986143187
      vertex 129.900000000 0.000000000 0.000000000
    endloop
  endfacet
endsolid panel-a1-base
