solid panel-a1-tile-color-3
  facet normal 0 0 -1
    outer loop
      vertex 75.400000000 56.638061408 3.000000000
      vertex 55.400000000 56.638061408 3.000000000
      vertex 65.400000000 62.411564099 3.000000000
    endloop
  endfacet
  facet normal -0 0 -1
    outer loop
      vertex 75.400000000 56.638061408 3.000000000
      vertex 55.400000000 45.091056024 3.000000000
      vertex 55.400000000 56.638061408 3.000000000
    endloop
  endfacet
  facet normal 0 0 -1
    outer loop
      vertex 75.400000000 56.638061408 3.000000000
      vertex 65.400000000 39.317553332 3.000000000
      vertex 55.400000000 45.091056024 3.000000000
    endloop
  endfacet
  facet normal 0 0 -1
    outer loop
      vertex 75.400000000 56.638061408 3.000000000
      vertex 75.400000000 45.091056024 3.000000000
      vertex 65.400000000 39.317553332 3.000000000
    endloop
  endfacet
  facet normal 0.5 0.866025404 0
    outer loop
      vertex 75.400000000 56.638061408 3.000000000
      vertex 65.400000000 62.411564099 3.000000000
      vertex 65.400000000 62.411564099 4.600000000
    endloop
  endfacet
  facet normal 0.5 0.866025404 -0
    outer loop
      vertex 75.400000000 56.638061408 3.000000000
      vertex 65.400000000 62.411564099 4.600000000
      vertex 75.400000000 56.638061408 4.600000000
    endloop
  endfacet
  facet normal -0.5 0.866025404 0
    outer loop
      vertex 65.400000000 62.411564099 3.000000000
      vertex 55.400000000 56.638061408 3.000000000
      vertex 55.400000000 56.638061408 4.600000000
    endloop
  endfacet
  facet normal -0.5 0.866025404 0
    outer loop
      vertex 65.400000000 62.411564099 3.000000000
      vertex 55.400000000 56.638061408 4.600000000
      vertex 65.400000000 62.411564099 4.600000000
    endloop
  endfacet
  facet normal -1 0 0
    outer loop
      vertex 55.400000000 56.638061408 3.000000000
      vertex 55.400000000 45.091056024 3.000000000
      vertex 55.400000000 45.091056024 4.600000000
    endloop
  endfacet
  facet normal -1 0 0
    outer loop
      vertex 55.400000000 56.638061408 3.000000000
      vertex 55.400000000 45.091056024 4.600000000
      vertex 55.400000000 56.638061408 4.600000000
    endloop
  endfacet
  facet normal -0.5 -0.866025404 0
    outer loop
      vertex 55.400000000 45.091056024 3.000000000
      vertex 65.400000000 39.317553332 3.000000000
      vertex 65.400000000 39.317553332 4.600000000
    endloop
  endfacet
  facet normal -0.5 -0.866025404 0
    outer loop
      vertex 55.400000000 45.091056024 3.000000000
      vertex 65.400000000 39.317553332 4.600000000
      vertex 55.400000000 45.091056024 4.600000000
    endloop
  endfacet
  facet normal 0.5 -0.866025404 0
    outer loop
      vertex 65.400000000 39.317553332 3.000000000
      vertex 75.400000000 45.091056024 3.000000000
      vertex 75.400000000 45.091056024 4.600000000
    endloop
  endfacet
  facet normal 0.5 -0.866025404 0
    outer loop
      vertex 65.400000000 39.317553332 3.000000000
      vertex 75.400000000 45.091056024 4.600000000
      vertex 65.400000000 39.317553332 4.600000000
    endloop
  endfacet
  facet normal 1 -1.23069612e-15 0
    outer loop
      vertex 75.400000000 45.091056024 3.000000000
      vertex 75.400000000 56.638061408 3.000000000
      vertex 75.400000000 56.638061408 4.600000000
    endloop
  endfacet
  facet normal 1 -1.23069612e-15 0
    outer loop
      vertex 75.400000000 45.091056024 3.000000000
      vertex 75.400000000 56.638061408 4.600000000
      vertex 75.400000000 45.091056024 4.600000000
    endloop
  endfacet
  facet normal 0.495722431 0.858616436 0.130526192
    outer loop
      vertex 75.400000000 56.638061408 4.600000000
      vertex 65.400000000 62.411564099 4.600000000
      vertex 65.400000000 62.380087726 4.807055236
    endloop
  endfacet
  facet normal 0.495722431 0.858616436 0.130526192
    outer loop
      vertex 75.400000000 56.638061408 4.600000000
      vertex 65.400000000 62.380087726 4.807055236
      vertex 75.372740661 56.622323221 4.807055236
    endloop
  endfacet
  facet normal -0.495722431 0.858616436 0.130526192
    outer loop
      vertex 65.400000000 62.411564099 4.600000000
      vertex 55.400000000 56.638061408 4.600000000
      vertex 55.427259339 56.622323221 4.807055236
    endloop
  endfacet
  facet normal -0.495722431 0.858616436 0.130526192
    outer loop
      vertex 65.400000000 62.411564099 4.600000000
      vertex 55.427259339 56.622323221 4.807055236
      vertex 65.400000000 62.380087726 4.807055236
    endloop
  endfacet
  facet normal -0.991444861 0 0.130526192
    outer loop
      vertex 55.400000000 56.638061408 4.600000000
      vertex 55.400000000 45.091056024 4.600000000
      vertex 55.427259339 45.106794210 4.807055236
    endloop
  endfacet
  facet normal -0.991444861 0 0.130526192
    outer loop
      vertex 55.400000000 56.638061408 4.600000000
      vertex 55.427259339 45.106794210 4.807055236
      vertex 55.427259339 56.622323221 4.807055236
    endloop
  endfacet
  facet normal -0.495722431 -0.858616436 0.130526192
    outer loop
      vertex 55.400000000 45.091056024 4.600000000
      vertex 65.400000000 39.317553332 4.600000000
      vertex 65.400000000 39.349029705 4.807055236
    endloop
  endfacet
  facet normal -0.495722431 -0.858616436 0.130526192
    outer loop
      vertex 55.400000000 45.091056024 4.600000000
      vertex 65.400000000 39.349029705 4.807055236
      vertex 55.427259339 45.106794210 4.807055236
    endloop
  endfacet
  facet normal 0.495722431 -0.858616436 0.130526192
    outer loop
      vertex 65.400000000 39.317553332 4.600000000
      vertex 75.400000000 45.091056024 4.600000000
      vertex 75.372740661 45.106794210 4.807055236
    endloop
  endfacet
  facet normal 0.495722431 -0.858616436 0.130526192
    outer loop
      vertex 65.400000000 39.317553332 4.600000000
      vertex 75.372740661 45.106794210 4.807055236
      vertex 65.400000000 39.349029705 4.807055236
    endloop
  endfacet
  facet normal 0.991444861 -1.22016734e-15 0.130526192
    outer loop
      vertex 75.400000000 45.091056024 4.600000000
      vertex 75.400000000 56.638061408 4.600000000
      vertex 75.372740661 56.622323221 4.807055236
    endloop
  endfacet
  facet normal 0.991444861 -1.2233608e-15 0.130526192
    outer loop
      vertex 75.400000000 45.091056024 4.600000000
      vertex 75.372740661 56.622323221 4.807055236
      vertex 75.372740661 45.106794210 4.807055236
    endloop
  endfacet
  facet normal 0.461939766 0.800103145 0.382683432
    outer loop
      vertex 75.372740661 56.622323221 4.807055236
      vertex 65.400000000 62.380087726 4.807055236
      vertex 65.400000000 62.287803669 5.000000000
    endloop
  endfacet
  facet normal 0.461939766 0.800103145 0.382683432
    outer loop
      vertex 75.372740661 56.622323221 4.807055236
      vertex 65.400000000 62.287803669 5.000000000
      vertex 75.292820323 56.576181192 5.000000000
    endloop
  endfacet
  facet normal -0.461939766 0.800103145 0.382683432
    outer loop
      vertex 65.400000000 62.380087726 4.807055236
      vertex 55.427259339 56.622323221 4.807055236
      vertex 55.507179677 56.576181192 5.000000000
    endloop
  endfacet
  facet normal -0.461939766 0.800103145 0.382683432
    outer loop
      vertex 65.400000000 62.380087726 4.807055236
      vertex 55.507179677 56.576181192 5.000000000
      vertex 65.400000000 62.287803669 5.000000000
    endloop
  endfacet
  facet normal -0.923879533 0 0.382683432
    outer loop
      vertex 55.427259339 56.622323221 4.807055236
      vertex 55.427259339 45.106794210 4.807055236
      vertex 55.507179677 45.152936239 5.000000000
    endloop
  endfacet
  facet normal -0.923879533 0 0.382683432
    outer loop
      vertex 55.427259339 56.622323221 4.807055236
      vertex 55.507179677 45.152936239 5.000000000
      vertex 55.507179677 56.576181192 5.000000000
    endloop
  endfacet
  facet normal -0.461939766 -0.800103145 0.382683432
    outer loop
      vertex 55.427259339 45.106794210 4.807055236
      vertex 65.400000000 39.349029705 4.807055236
      vertex 65.400000000 39.441313763 5.000000000
    endloop
  endfacet
  facet normal -0.461939766 -0.800103145 0.382683432
    outer loop
      vertex 55.427259339 45.106794210 4.807055236
      vertex 65.400000000 39.441313763 5.000000000
      vertex 55.507179677 45.152936239 5.000000000
    endloop
  endfacet
  facet normal 0.461939766 -0.800103145 0.382683432
    outer loop
      vertex 65.400000000 39.349029705 4.807055236
      vertex 75.372740661 45.106794210 4.807055236
      vertex 75.292820323 45.152936239 5.000000000
    endloop
  endfacet
  facet normal 0.461939766 -0.800103145 0.382683432
    outer loop
      vertex 65.400000000 39.349029705 4.807055236
      vertex 75.292820323 45.152936239 5.000000000
      vertex 65.400000000 39.441313763 5.000000000
    endloop
  endfacet
  facet normal 0.923879533 -1.14012285e-15 0.382683432
    outer loop
      vertex 75.372740661 45.106794210 4.807055236
      vertex 75.372740661 56.622323221 4.807055236
      vertex 75.292820323 56.576181192 5.000000000
    endloop
  endfacet
  facet normal 0.923879533 -1.14889464e-15 0.382683432
    outer loop
      vertex 75.372740661 45.106794210 4.807055236
      vertex 75.292820323 56.576181192 5.000000000
      vertex 75.292820323 45.152936239 5.000000000
    endloop
  endfacet
  facet normal 0.39667667 0.687064147 0.608761429
    outer loop
      vertex 75.292820323 56.576181192 5.000000000
      vertex 65.400000000 62.287803669 5.000000000
      vertex 65.400000000 62.141000933 5.165685425
    endloop
  endfacet
  facet normal 0.39667667 0.687064147 0.608761429
    outer loop
      vertex 75.292820323 56.576181192 5.000000000
      vertex 65.400000000 62.141000933 5.165685425
      vertex 75.165685425 56.502779825 5.165685425
    endloop
  endfacet
  facet normal -0.39667667 0.687064147 0.608761429
    outer loop
      vertex 65.400000000 62.287803669 5.000000000
      vertex 55.507179677 56.576181192 5.000000000
      vertex 55.634314575 56.502779825 5.165685425
    endloop
  endfacet
  facet normal -0.39667667 0.687064147 0.608761429
    outer loop
      vertex 65.400000000 62.287803669 5.000000000
      vertex 55.634314575 56.502779825 5.165685425
      vertex 65.400000000 62.141000933 5.165685425
    endloop
  endfacet
  facet normal -0.79335334 0 0.608761429
    outer loop
      vertex 55.507179677 56.576181192 5.000000000
      vertex 55.507179677 45.152936239 5.000000000
      vertex 55.634314575 45.226337607 5.165685425
    endloop
  endfacet
  facet normal -0.79335334 0 0.608761429
    outer loop
      vertex 55.507179677 56.576181192 5.000000000
      vertex 55.634314575 45.226337607 5.165685425
      vertex 55.634314575 56.502779825 5.165685425
    endloop
  endfacet
  facet normal -0.39667667 -0.687064147 0.608761429
    outer loop
      vertex 55.507179677 45.152936239 5.000000000
      vertex 65.400000000 39.441313763 5.000000000
      vertex 65.400000000 39.588116498 5.165685425
    endloop
  endfacet
  facet normal -0.39667667 -0.687064147 0.608761429
    outer loop
      vertex 55.507179677 45.152936239 5.000000000
      vertex 65.400000000 39.588116498 5.165685425
      vertex 55.634314575 45.226337607 5.165685425
    endloop
  endfacet
  facet normal 0.39667667 -0.687064147 0.608761429
    outer loop
      vertex 65.400000000 39.441313763 5.000000000
      vertex 75.292820323 45.152936239 5.000000000
      vertex 75.165685425 45.226337607 5.165685425
    endloop
  endfacet
  facet normal 0.39667667 -0.687064147 0.608761429
    outer loop
      vertex 65.400000000 39.441313763 5.000000000
      vertex 75.165685425 45.226337607 5.165685425
      vertex 65.400000000 39.588116498 5.165685425
    endloop
  endfacet
  facet normal 0.79335334 -9.86955029e-16 0.608761429
    outer loop
      vertex 75.292820323 45.152936239 5.000000000
      vertex 75.292820323 56.576181192 5.000000000
      vertex 75.165685425 56.502779825 5.165685425
    endloop
  endfacet
  facet normal 0.79335334 -9.98849818e-16 0.608761429
    outer loop
      vertex 75.292820323 45.152936239 5.000000000
      vertex 75.165685425 56.502779825 5.165685425
      vertex 75.165685425 45.226337607 5.165685425
    endloop
  endfacet
  facet normal 0.304380714 0.527202862 0.79335334
    outer loop
      vertex 75.165685425 56.502779825 5.165685425
      vertex 65.400000000 62.141000933 5.165685425
      vertex 65.400000000 61.949683884 5.292820323
    endloop
  endfacet
  facet normal 0.304380714 0.527202862 0.79335334
    outer loop
      vertex 75.165685425 56.502779825 5.165685425
      vertex 65.400000000 61.949683884 5.292820323
      vertex 75.000000000 56.407121300 5.292820323
    endloop
  endfacet
  facet normal -0.304380714 0.527202862 0.79335334
    outer loop
      vertex 65.400000000 62.141000933 5.165685425
      vertex 55.634314575 56.502779825 5.165685425
      vertex 55.800000000 56.407121300 5.292820323
    endloop
  endfacet
  facet normal -0.304380714 0.527202862 0.79335334
    outer loop
      vertex 65.400000000 62.141000933 5.165685425
      vertex 55.800000000 56.407121300 5.292820323
      vertex 65.400000000 61.949683884 5.292820323
    endloop
  endfacet
  facet normal -0.608761429 0 0.79335334
    outer loop
      vertex 55.634314575 56.502779825 5.165685425
      vertex 55.634314575 45.226337607 5.165685425
      vertex 55.800000000 45.321996131 5.292820323
    endloop
  endfacet
  facet normal -0.608761429 0 0.79335334
    outer loop
      vertex 55.634314575 56.502779825 5.165685425
      vertex 55.800000000 45.321996131 5.292820323
      vertex 55.800000000 56.407121300 5.292820323
    endloop
  endfacet
  facet normal -0.304380714 -0.527202862 0.79335334
    outer loop
      vertex 55.634314575 45.226337607 5.165685425
      vertex 65.400000000 39.588116498 5.165685425
      vertex 65.400000000 39.779433547 5.292820323
    endloop
  endfacet
  facet normal -0.304380714 -0.527202862 0.79335334
    outer loop
      vertex 55.634314575 45.226337607 5.165685425
      vertex 65.400000000 39.779433547 5.292820323
      vertex 55.800000000 45.321996131 5.292820323
    endloop
  endfacet
  facet normal 0.304380714 -0.527202862 0.79335334
    outer loop
      vertex 65.400000000 39.588116498 5.165685425
      vertex 75.165685425 45.226337607 5.165685425
      vertex 75.000000000 45.321996131 5.292820323
    endloop
  endfacet
  facet normal 0.304380714 -0.527202862 0.79335334
    outer loop
      vertex 65.400000000 39.588116498 5.165685425
      vertex 75.000000000 45.321996131 5.292820323
      vertex 65.400000000 39.779433547 5.292820323
    endloop
  endfacet
  facet normal 0.608761429 -7.67176389e-16 0.79335334
    outer loop
      vertex 75.165685425 45.226337607 5.165685425
      vertex 75.165685425 56.502779825 5.165685425
      vertex 75.000000000 56.407121300 5.292820323
    endloop
  endfacet
  facet normal 0.608761429 -7.80799852e-16 0.79335334
    outer loop
      vertex 75.165685425 45.226337607 5.165685425
      vertex 75.000000000 56.407121300 5.292820323
      vertex 75.000000000 45.321996131 5.292820323
    endloop
  endfacet
  facet normal 0.191341716 0.331413574 0.923879533
    outer loop
      vertex 75.000000000 56.407121300 5.292820323
      vertex 65.400000000 61.949683884 5.292820323
      vertex 65.400000000 61.726890461 5.372740661
    endloop
  endfacet
  facet normal 0.191341716 0.331413574 0.923879533
    outer loop
      vertex 75.000000000 56.407121300 5.292820323
      vertex 65.400000000 61.726890461 5.372740661
      vertex 74.807055236 56.295724588 5.372740661
    endloop
  endfacet
  facet normal -0.191341716 0.331413574 0.923879533
    outer loop
      vertex 65.400000000 61.949683884 5.292820323
      vertex 55.800000000 56.407121300 5.292820323
      vertex 55.992944764 56.295724588 5.372740661
    endloop
  endfacet
  facet normal -0.191341716 0.331413574 0.923879533
    outer loop
      vertex 65.400000000 61.949683884 5.292820323
      vertex 55.992944764 56.295724588 5.372740661
      vertex 65.400000000 61.726890461 5.372740661
    endloop
  endfacet
  facet normal -0.382683432 0 0.923879533
    outer loop
      vertex 55.800000000 56.407121300 5.292820323
      vertex 55.800000000 45.321996131 5.292820323
      vertex 55.992944764 45.433392843 5.372740661
    endloop
  endfacet
  facet normal -0.382683432 0 0.923879533
    outer loop
      vertex 55.800000000 56.407121300 5.292820323
      vertex 55.992944764 45.433392843 5.372740661
      vertex 55.992944764 56.295724588 5.372740661
    endloop
  endfacet
  facet normal -0.191341716 -0.331413574 0.923879533
    outer loop
      vertex 55.800000000 45.321996131 5.292820323
      vertex 65.400000000 39.779433547 5.292820323
      vertex 65.400000000 40.002226970 5.372740661
    endloop
  endfacet
  facet normal -0.191341716 -0.331413574 0.923879533
    outer loop
      vertex 55.800000000 45.321996131 5.292820323
      vertex 65.400000000 40.002226970 5.372740661
      vertex 55.992944764 45.433392843 5.372740661
    endloop
  endfacet
  facet normal 0.191341716 -0.331413574 0.923879533
    outer loop
      vertex 65.400000000 39.779433547 5.292820323
      vertex 75.000000000 45.321996131 5.292820323
      vertex 74.807055236 45.433392843 5.372740661
    endloop
  endfacet
  facet normal 0.191341716 -0.331413574 0.923879533
    outer loop
      vertex 65.400000000 39.779433547 5.292820323
      vertex 74.807055236 45.433392843 5.372740661
      vertex 65.400000000 40.002226970 5.372740661
    endloop
  endfacet
  facet normal 0.382683432 -4.90590641e-16 0.923879533
    outer loop
      vertex 75.000000000 45.321996131 5.292820323
      vertex 75.000000000 56.407121300 5.292820323
      vertex 74.807055236 56.295724588 5.372740661
    endloop
  endfacet
  facet normal 0.382683432 -5.00876714e-16 0.923879533
    outer loop
      vertex 75.000000000 45.321996131 5.292820323
      vertex 74.807055236 56.295724588 5.372740661
      vertex 74.807055236 45.433392843 5.372740661
    endloop
  endfacet
  facet normal 0.0652630962 0.113038998 0.991444861
    outer loop
      vertex 74.807055236 56.295724588 5.372740661
      vertex 65.400000000 61.726890461 5.372740661
      vertex 65.400000000 61.487803669 5.400000000
    endloop
  endfacet
  facet normal 0.0652630962 0.113038998 0.991444861
    outer loop
      vertex 74.807055236 56.295724588 5.372740661
      vertex 65.400000000 61.487803669 5.400000000
      vertex 74.600000000 56.176181192 5.400000000
    endloop
  endfacet
  facet normal -0.0652630962 0.113038998 0.991444861
    outer loop
      vertex 65.400000000 61.726890461 5.372740661
      vertex 55.992944764 56.295724588 5.372740661
      vertex 56.200000000 56.176181192 5.400000000
    endloop
  endfacet
  facet normal -0.0652630962 0.113038998 0.991444861
    outer loop
      vertex 65.400000000 61.726890461 5.372740661
      vertex 56.200000000 56.176181192 5.400000000
      vertex 65.400000000 61.487803669 5.400000000
    endloop
  endfacet
  facet normal -0.130526192 0 0.991444861
    outer loop
      vertex 55.992944764 56.295724588 5.372740661
      vertex 55.992944764 45.433392843 5.372740661
      vertex 56.200000000 45.552936239 5.400000000
    endloop
  endfacet
  facet normal -0.130526192 0 0.991444861
    outer loop
      vertex 55.992944764 56.295724588 5.372740661
      vertex 56.200000000 45.552936239 5.400000000
      vertex 56.200000000 56.176181192 5.400000000
    endloop
  endfacet
  facet normal -0.0652630962 -0.113038998 0.991444861
    outer loop
      vertex 55.992944764 45.433392843 5.372740661
      vertex 65.400000000 40.002226970 5.372740661
      vertex 65.400000000 40.241313763 5.400000000
    endloop
  endfacet
  facet normal -0.0652630962 -0.113038998 0.991444861
    outer loop
      vertex 55.992944764 45.433392843 5.372740661
      vertex 65.400000000 40.241313763 5.400000000
      vertex 56.200000000 45.552936239 5.400000000
    endloop
  endfacet
  facet normal 0.0652630962 -0.113038998 0.991444861
    outer loop
      vertex 65.400000000 40.002226970 5.372740661
      vertex 74.807055236 45.433392843 5.372740661
      vertex 74.600000000 45.552936239 5.400000000
    endloop
  endfacet
  facet normal 0.0652630962 -0.113038998 0.991444861
    outer loop
      vertex 65.400000000 40.002226970 5.372740661
      vertex 74.600000000 45.552936239 5.400000000
      vertex 65.400000000 40.241313763 5.400000000
    endloop
  endfacet
  facet normal 0.130526192 -1.70763405e-16 0.991444861
    outer loop
      vertex 74.807055236 45.433392843 5.372740661
      vertex 74.807055236 56.295724588 5.372740661
      vertex 74.600000000 56.176181192 5.400000000
    endloop
  endfacet
  facet normal 0.130526192 -1.74365385e-16 0.991444861
    outer loop
      vertex 74.807055236 45.433392843 5.372740661
      vertex 74.600000000 56.176181192 5.400000000
      vertex 74.600000000 45.552936239 5.400000000
    endloop
  endfacet
  facet normal 0 0 1
    outer loop
      vertex 74.600000000 56.176181192 5.400000000
      vertex 65.400000000 61.487803669 5.400000000
      vertex 56.200000000 56.176181192 5.400000000
    endloop
  endfacet
  facet normal 0 0 1
    outer loop
      vertex 74.600000000 56.176181192 5.400000000
      vertex 56.200000000 56.176181192 5.400000000
      vertex 56.200000000 45.552936239 5.400000000
    endloop
  endfacet
  facet normal 0 0 1
    outer loop
      vertex 74.600000000 56.176181192 5.400000000
      vertex 56.200000000 45.552936239 5.400000000
      vertex 65.400000000 40.241313763 5.400000000
    endloop
  endfacet
  facet normal 0 0 1
    outer loop
      vertex 74.600000000 56.176181192 5.400000000
      vertex 65.400000000 40.241313763 5.400000000
      vertex 74.600000000 45.552936239 5.400000000
    endloop
  endfacet
endsolid panel-a1-tile-color-3
