solid mosaic_tile
  facet normal 0 0 -1
    outer loop
      vertex 0.000000000 5.728397202 0.000000000
      vertex 9.921875000 26.121491242 0.000000000
      vertex 9.921875000 0.000000000 0.000000000
    endloop
  endfacet
  facet normal -0 0 1
    outer loop
      vertex 0.000000000 5.728397202 3.000000000
      vertex 9.921875000 0.000000000 3.000000000
      vertex 9.921875000 26.121491242 3.000000000
    endloop
  endfacet
  facet normal 0 0 -1
    outer loop
      vertex 0.000000000 5.728397202 0.000000000
      vertex 0.000000000 20.393094040 0.000000000
      vertex 9.921875000 26.121491242 0.000000000
    endloop
  endfacet
  facet normal 0 0 1
    outer loop
      vertex 0.000000000 5.728397202 3.000000000
      vertex 9.921875000 26.121491242 3.000000000
      vertex 0.000000000 20.393094040 3.000000000
    endloop
  endfacet
  facet normal -0.5 -0.866025404 0
    outer loop
      vertex 0.000000000 5.728397202 0.000000000
      vertex 9.921875000 0.000000000 0.000000000
      vertex 9.921875000 0.000000000 3.000000000
    endloop
  endfacet
  facet normal -0.5 -0.866025404 0
    outer loop
      vertex 0.000000000 5.728397202 0.000000000
      vertex 9.921875000 0.000000000 3.000000000
      vertex 0.000000000 5.728397202 3.000000000
    endloop
  endfacet
  facet normal 1 0 0
    outer loop
      vertex 9.921875000 0.000000000 0.000000000
      vertex 9.921875000 26.121491242 0.000000000
      vertex 9.921875000 26.121491242 3.000000000
    endloop
  endfacet
  facet normal 1 0 0
    outer loop
      vertex 9.921875000 0.000000000 0.000000000
      vertex 9.921875000 26.121491242 3.000000000
      vertex 9.921875000 0.000000000 3.000000000
    endloop
  endfacet
  facet normal -0.5 0.866025404 0
    outer loop
      vertex 9.921875000 26.121491242 0.000000000
      vertex 0.000000000 20.393094040 0.000000000
      vertex 0.000000000 20.393094040 3.000000000
    endloop
  endfacet
  facet normal -0.5 0.866025404 0
    outer loop
      vertex 9.921875000 26.121491242 0.000000000
      vertex 0.000000000 20.393094040 3.000000000
      vertex 9.921875000 26.121491242 3.000000000
    endloop
  endfacet
  facet normal -1 0 0
    outer loop
      vertex 0.000000000 20.393094040 0.000000000
      vertex 0.000000000 5.728397202 0.000000000
      vertex 0.000000000 5.728397202 3.000000000
    endloop
  endfacet
  facet normal -1 0 0
    outer loop
      vertex 0.000000000 20.393094040 0.000000000
      vertex 0.000000000 5.728397202 3.000000000
      vertex 0.000000000 20.393094040 3.000000000
    endloop
  endfacet
endsolid mosaic_tile
