solid mosaic_tile
  facet normal 0 0 -1
    outer loop
      vertex 0.000000000 0.000000000 0.000000000
      vertex 9.921875000 2.368415657 0.000000000
      vertex 9.921875000 0.000000000 0.000000000
    endloop
  endfacet
  facet normal 0 0 1
    outer loop
      vertex 0.000000000 0.000000000 3.000000000
      vertex 9.921875000 0.000000000 3.000000000
      vertex 9.921875000 2.368415657 3.000000000
    endloop
  endfacet
  facet normal 0 0 -1
    outer loop
      vertex 0.000000000 0.000000000 0.000000000
      vertex 0.000000000 8.096812859 0.000000000
      vertex 9.921875000 2.368415657 0.000000000
    endloop
  endfacet
  facet normal 0 0 1
    outer loop
      vertex 0.000000000 0.000000000 3.000000000
      vertex 9.921875000 2.368415657 3.000000000
      vertex 0.000000000 8.096812859 3.000000000
    endloop
  endfacet
  facet normal 0 -1 0
    outer loop
      vertex 0.000000000 0.000000000 0.000000000
      vertex 9.921875000 0.000000000 0.000000000
      vertex 9.921875000 0.000000000 3.000000000
    endloop
  endfacet
  facet normal 0 -1 0
    outer loop
      vertex 0.000000000 0.000000000 0.000000000
      vertex 9.921875000 0.000000000 3.000000000
      vertex 0.000000000 0.000000000 3.000000000
    endloop
  endfacet
  facet normal 1 0 0
    outer loop
      vertex 9.921875000 0.000000000 0.000000000
      vertex 9.921875000 2.368415657 0.000000000
      vertex 9.921875000 2.368415657 3.000000000
    endloop
  endfacet
  facet normal 1 0 0
    outer loop
      vertex 9.921875000 0.000000000 0.000000000
      vertex 9.921875000 2.368415657 3.000000000
      vertex 9.921875000 0.000000000 3.000000000
    endloop
  endfacet
  facet normal 0.5 0.866025404 0
    outer loop
      vertex 9.921875000 2.368415657 0.000000000
      vertex 0.000000000 8.096812859 0.000000000
      vertex 0.000000000 8.096812859 3.000000000
    endloop
  endfacet
  facet normal 0.5 0.866025404 -0
    outer loop
      vertex 9.921875000 2.368415657 0.000000000
      vertex 0.000000000 8.096812859 3.000000000
      vertex 9.921875000 2.368415657 3.000000000
    endloop
  endfacet
  facet normal -1 0 0
    outer loop
      vertex 0.000000000 8.096812859 0.000000000
      vertex 0.000000000 0.000000000 0.000000000
      vertex 0.000000000 0.000000000 3.000000000
    endloop
  endfacet
  facet normal -1 0 0
    outer loop
      vertex 0.000000000 8.096812859 0.000000000
      vertex 0.000000000 0.000000000 3.000000000
      vertex 0.000000000 8.096812859 3.000000000
    endloop
  endfacet
endsolid mosaic_tile
